<?xml version="1.0" encoding="utf-8"?>
<!-- Generator: Adobe Illustrator 23.0.0, SVG Export Plug-In . SVG Version: 6.00 Build 0)  -->
<svg version="1.1" xmlns="http://www.w3.org/2000/svg" xmlns:xlink="http://www.w3.org/1999/xlink" x="0px" y="0px"
	 viewBox="0 0 750 500" style="enable-background:new 0 0 750 500;" xml:space="preserve">
<style type="text/css">
	.st0{fill:#FFFFFF;}
	.st1{fill:#00B1D1;}
	.st2{fill:#FFBC1D;}
	.st3{fill:#341A65;}
	.st4{fill:#FF2E60;}
	.st5{fill:#476ACA;}
	.st6{opacity:0.67;fill:#2D2C2C;}
</style>
<g id="BACKGROUND">
	<rect class="st0" width="750" height="500"/>
</g>
<g id="OBJECTS">
	<g>
		<rect x="125.51" y="0.53" class="st1" width="124.76" height="62.09"/>
		<rect x="625.21" y="250.2" class="st1" width="62.24" height="125.38"/>
		<rect x="500.54" y="375.2" class="st2" width="124.66" height="62.5"/>
		<rect x="500.38" y="125.29" class="st3" width="124.82" height="124.82"/>
		<rect x="-0.21" y="250.48" class="st3" width="250.33" height="125.35"/>
		<rect x="375.18" y="125.17" class="st4" width="125.17" height="125.03"/>
		<rect x="125.21" y="125.2" class="st2" width="124.92" height="125.28"/>
		<rect x="313.55" y="125.2" class="st1" width="61.89" height="62.39"/>
		<rect x="375.18" y="62.7" class="st1" width="62.33" height="62.33"/>
		<rect x="375.63" y="250.12" class="st5" width="125.08" height="125.67"/>
		<path class="st5" d="M563.36,250.02V375.3c-34.6,0-62.64-28.05-62.64-62.64C500.72,278.06,528.76,250.02,563.36,250.02z"/>
		<g>
			<path class="st2" d="M375.07,0.38h125.28c0,34.6-28.05,62.64-62.64,62.64C403.11,63.02,375.07,34.98,375.07,0.38z"/>
			<path class="st4" d="M403.55,0.38h68.31c0,18.86-15.29,34.15-34.15,34.15C418.84,34.53,403.55,19.24,403.55,0.38z"/>
		</g>
		<path class="st2" d="M375.06,312.94V250.3h62.99C437.86,284.93,409.73,312.94,375.06,312.94z"/>
		<path class="st1" d="M375.08,281.44V250.3h31.48C406.38,267.54,392.36,281.44,375.08,281.44z"/>
		<polygon class="st3" points="311.87,374.89 312.99,374.89 312.43,375.45 		"/>
		<g>
			<path class="st1" d="M500.35,249.46V125.29h124.86C624.83,193.93,569.08,249.46,500.35,249.46z"/>
			<path class="st2" d="M500.38,187.02v-61.73h62.4C562.42,159.45,534.63,187.02,500.38,187.02z"/>
		</g>
		<g>
			<polygon class="st3" points="375.63,313.12 250.34,313.12 312.99,250.48 			"/>
			<polygon class="st5" points="340.49,313.12 285.49,313.12 312.99,285.62 			"/>
		</g>
		<g>
			
				<rect x="206.05" y="206.18" transform="matrix(0.7071 -0.7071 0.7071 0.7071 -103.7891 250.3846)" class="st1" width="88.59" height="88.59"/>
			<polygon class="st4" points="250.34,313.12 250.13,250.48 312.99,250.48 			"/>
			<polygon class="st4" points="250.36,187.84 250.13,250.48 187.71,250.48 			"/>
		</g>
		<g>
			<rect x="313.47" y="0.53" class="st1" width="61.41" height="62.33"/>
			<polygon class="st5" points="313.47,0.53 374.88,62.86 374.82,0.7 			"/>
		</g>
		<g>
			<polygon class="st3" points="250.34,187.7 187.7,250.34 125.06,187.7 125.23,187.53 250.12,187.53 250.12,187.48 			"/>
			<polygon class="st0" points="250.12,187.48 250.12,187.53 125.23,187.53 187.7,125.06 			"/>
			
				<rect x="168.26" y="168.25" transform="matrix(0.7071 -0.7071 0.7071 0.7071 -77.7447 187.7024)" class="st5" width="38.89" height="38.89"/>
		</g>
		<g>
			<path class="st2" d="M312.99,438.43c34.59,0,62.64-28.05,62.64-62.64H250.35C250.35,410.38,278.39,438.43,312.99,438.43z"/>
			
				<rect x="281.66" y="281.81" transform="matrix(-1.836970e-16 1 -1 -1.836970e-16 657.4484 31.4598)" class="st1" width="62.67" height="125.28"/>
			<circle class="st4" cx="312.85" cy="375.62" r="35"/>
		</g>
		<path class="st3" d="M500.72,375.79L500.72,375.79c-34.54,0-62.54-28-62.54-62.54V250.3h62.54V375.79z"/>
		<g>
			<rect x="-0.21" y="375.82" class="st4" width="250.33" height="60.95"/>
			<polygon class="st0" points="250.02,375.72 250.02,375.82 0.11,375.82 125.11,250.82 			"/>
			
				<rect x="82.08" y="332.84" transform="matrix(0.7071 -0.7071 0.7071 0.7071 -229.1166 198.5087)" class="st5" width="85.97" height="85.97"/>
		</g>
		
			<ellipse transform="matrix(0.7071 -0.7071 0.7071 0.7071 -25.1578 502.8589)" class="st3" cx="594.43" cy="281.8" rx="19.79" ry="19.79"/>
		<g>
			<polygon class="st3" points="500.82,437.56 375.53,437.56 438.18,500.2 			"/>
			<path class="st5" d="M404.03,437.56h68.31c0,18.86-15.29,34.15-34.15,34.15C419.31,471.71,404.03,456.42,404.03,437.56z"/>
		</g>
		<g>
			<rect x="375.6" y="375.7" class="st4" width="125.15" height="61.85"/>
			
				<ellipse transform="matrix(0.6682 -0.744 0.744 0.6682 -167.9594 437.63)" class="st0" cx="406.63" cy="407.11" rx="19.79" ry="19.79"/>
			
				<ellipse transform="matrix(0.7071 -0.7071 0.7071 0.7071 -150.4427 451.016)" class="st0" cx="469.2" cy="407.11" rx="19.79" ry="19.79"/>
		</g>
		<g>
			<rect x="250.13" y="0.2" class="st4" width="63.43" height="187.33"/>
			<g>
				
					<ellipse transform="matrix(0.7071 -0.7071 0.7071 0.7071 60.1116 208.5191)" class="st2" cx="281.76" cy="31.7" rx="19.79" ry="19.79"/>
				
					<ellipse transform="matrix(0.2278 -0.9737 0.9737 0.2278 126.1731 346.8315)" class="st2" cx="281.76" cy="93.86" rx="19.79" ry="19.79"/>
				
					<ellipse transform="matrix(0.7071 -0.7071 0.7071 0.7071 -27.8049 244.9353)" class="st2" cx="281.76" cy="156.03" rx="19.79" ry="19.79"/>
			</g>
		</g>
		<g>
			
				<rect x="61.75" y="374.82" transform="matrix(6.123234e-17 -1 1 6.123234e-17 -375.0237 561.9449)" class="st1" width="63.43" height="187.33"/>
			<g>
				
					<ellipse transform="matrix(0.2298 -0.9732 0.9732 0.2298 -432.1692 391.5602)" class="st3" cx="31.29" cy="468.81" rx="19.79" ry="19.79"/>
				
					<ellipse transform="matrix(0.9999 -0.0156 0.0156 0.9999 -7.3216 1.5192)" class="st3" cx="93.46" cy="468.81" rx="19.79" ry="19.79"/>
				
					<ellipse transform="matrix(0.2257 -0.9742 0.9742 0.2257 -336.2155 514.6193)" class="st3" cx="155.63" cy="468.81" rx="19.79" ry="19.79"/>
			</g>
		</g>
		<g>
			
				<rect x="643.2" y="80.99" transform="matrix(0.7071 -0.7071 0.7071 0.7071 112.7716 522.8276)" class="st3" width="88.59" height="88.59"/>
			<polygon class="st4" points="687.49,187.93 687.71,125.29 750.14,125.29 			"/>
			<polygon class="st4" points="687.51,62.65 687.71,125.29 624.86,125.29 			"/>
		</g>
		<polygon class="st2" points="59.89,436.82 -0.21,375.82 -0.15,436.66 		"/>
		<rect x="187.13" y="436.61" class="st4" width="62.98" height="63.59"/>
		<polygon class="st2" points="187.4,436.61 250.13,500.2 250.07,436.78 		"/>
		
			<rect x="393.41" y="143.2" transform="matrix(0.7071 -0.7071 0.7071 0.7071 -4.3809 364.4199)" class="st3" width="88.59" height="88.59"/>
		<g>
			<path class="st2" d="M375.56,125.18c0,0,1.47,29.96-15.61,46.86c-17.08,16.91-46.28,15.41-46.28,15.41s-1.51-28.9,15.57-45.81
				C346.33,124.74,375.56,125.18,375.56,125.18z"/>
			<path class="st4" d="M313.68,62.87c0,0-1.47,29.96,15.61,46.86c17.08,16.91,46.28,15.41,46.28,15.41s1.51-28.9-15.57-45.81
				C342.91,62.43,313.68,62.87,313.68,62.87z"/>
			<path class="st2" d="M375.63,125.17c0,0-1.47,29.96,15.61,46.86c17.08,16.91,46.28,15.41,46.28,15.41s1.51-28.9-15.57-45.81
				C404.86,124.74,375.63,125.17,375.63,125.17z"/>
			<path class="st4" d="M437.51,62.87c0,0,1.47,29.96-15.61,46.86c-17.08,16.91-46.28,15.41-46.28,15.41s-1.51-28.9,15.57-45.81
				S437.51,62.87,437.51,62.87z"/>
		</g>
		<polygon class="st5" points="500.35,187.5 437.67,187.16 437.71,250.14 		"/>
		<g>
			<polygon class="st0" points="249.96,187.58 375.45,313.07 375.45,187.58 			"/>
			
				<ellipse transform="matrix(0.7928 -0.6095 0.6095 0.7928 -62.1934 255.3611)" class="st5" cx="344.5" cy="219.16" rx="19.79" ry="19.79"/>
		</g>
		<g>
			<path class="st1" d="M562.67,437.89c0,0,1.47,29.96-15.61,46.86s-46.28,15.41-46.28,15.41s-1.51-28.9,15.57-45.81
				S562.67,437.89,562.67,437.89z"/>
			<path class="st5" d="M500.79,375.58c0,0-1.47,29.96,15.61,46.86c17.08,16.91,46.28,15.41,46.28,15.41s1.51-28.9-15.57-45.81
				C530.02,375.14,500.79,375.58,500.79,375.58z"/>
			<path class="st1" d="M562.74,437.89c0,0-1.47,29.96,15.61,46.86c17.08,16.91,46.28,15.41,46.28,15.41s1.51-28.9-15.57-45.81
				C591.97,437.45,562.74,437.89,562.74,437.89z"/>
			<path class="st5" d="M624.62,375.58c0,0,1.47,29.96-15.61,46.86c-17.08,16.91-46.28,15.41-46.28,15.41s-1.51-28.9,15.57-45.81
				C595.39,375.14,624.62,375.58,624.62,375.58z"/>
		</g>
		<rect x="563.36" y="313.36" class="st1" width="61.93" height="61.93"/>
		<polygon class="st3" points="563.36,313.36 625.29,313.36 625.29,375.3 		"/>
		<g>
			<rect x="687.5" y="437.9" class="st2" width="62.29" height="62.29"/>
			<polygon class="st4" points="687.5,437.9 749.79,437.9 749.79,500.2 			"/>
		</g>
		<g>
			
				<rect x="625.21" y="437.9" transform="matrix(6.123234e-17 -1 1 6.123234e-17 187.3023 1125.4034)" class="st5" width="62.29" height="62.29"/>
			<polygon class="st3" points="625.21,500.2 625.21,437.9 687.5,437.9 			"/>
		</g>
		<g>
			<rect x="687.5" y="250.67" class="st3" width="62.29" height="187.33"/>
			<g>
				
					<ellipse transform="matrix(0.2317 -0.9728 0.9728 0.2317 277.6403 915.8718)" class="st5" cx="718.65" cy="282.17" rx="19.79" ry="19.79"/>
				
					<ellipse transform="matrix(0.7071 -0.7071 0.7071 0.7071 -32.9923 609.0127)" class="st5" cx="718.65" cy="344.33" rx="19.79" ry="19.79"/>
				
					<ellipse transform="matrix(0.2317 -0.9728 0.9728 0.2317 156.6915 1011.3948)" class="st5" cx="718.65" cy="406.5" rx="19.79" ry="19.79"/>
			</g>
		</g>
		<path class="st4" d="M687.45,312.45L687.45,312.45c-34.54,0-62.54,28-62.54,62.54v62.95h62.54V312.45z"/>
		<polygon class="st2" points="624.86,125.29 687.49,187.93 687.5,250.67 625.21,250.11 		"/>
		<g>
			<path class="st4" d="M687.48,251.01c0,0,1.47,29.96-15.61,46.86s-46.28,15.41-46.28,15.41s-1.51-28.9,15.57-45.81
				C658.24,250.57,687.48,251.01,687.48,251.01z"/>
			<path class="st4" d="M749.76,188.45c0,0,1.47,29.96-15.61,46.86c-17.08,16.91-46.28,15.41-46.28,15.41s-1.51-28.9,15.57-45.81
				S749.76,188.45,749.76,188.45z"/>
		</g>
		
			<rect x="-0.21" y="0.2" transform="matrix(-1 -1.224647e-16 1.224647e-16 -1 124.9999 125.3954)" class="st2" width="125.41" height="125"/>
		<g>
			<path class="st3" d="M125.21,63.02v62.16H62.7C62.89,90.82,90.8,63.02,125.21,63.02z"/>
			<path class="st1" d="M125.19,94.29v30.9H93.95C94.13,108.09,108.04,94.29,125.19,94.29z"/>
		</g>
		<path class="st5" d="M-0.21,0.2L-0.21,0.2c34.84,0,63.08,28.24,63.08,63.08v61.92H-0.21V0.2z"/>
		
			<ellipse transform="matrix(0.7071 -0.7071 0.7071 0.7071 5.1042 75.7193)" class="st4" cx="93.95" cy="31.7" rx="19.79" ry="19.79"/>
		<g>
			<polygon class="st5" points="250.5,62.84 187.86,125.48 125.22,62.84 125.39,62.67 250.28,62.67 250.28,62.62 			"/>
			<polygon class="st3" points="250.28,62.62 250.28,62.67 125.39,62.67 187.86,0.2 			"/>
			
				<rect x="168.41" y="43.39" transform="matrix(0.7071 -0.7071 0.7071 0.7071 10.589 151.2401)" class="st2" width="38.89" height="38.89"/>
		</g>
		<g>
			<polygon class="st3" points="625.83,125.29 500.35,-0.2 500.35,125.29 			"/>
			
				<ellipse transform="matrix(0.1612 -0.9869 0.9869 0.1612 353.1768 602.9561)" class="st5" cx="531.29" cy="93.71" rx="19.79" ry="19.79"/>
		</g>
		<g>
			<polygon class="st4" points="689.16,0.2 560.55,0.2 624.86,64.49 			"/>
			<polygon class="st1" points="624.86,64.49 625.21,125.29 750.21,0.2 689.16,0.2 			"/>
		</g>
		<polygon class="st5" points="750.21,0.2 687.5,62.64 750.14,125.29 		"/>
		<g>
			
				<ellipse transform="matrix(0.7071 -0.7071 0.7071 0.7071 -249.3169 336.1816)" class="st1" cx="281.15" cy="469.04" rx="19.79" ry="19.79"/>
			
				<ellipse transform="matrix(0.7071 -0.7071 0.7071 0.7071 -230.9902 380.4261)" class="st1" cx="343.72" cy="469.04" rx="19.79" ry="19.79"/>
		</g>
		<polygon class="st2" points="375.53,437.56 375.63,500.2 438.18,500.2 		"/>
		<polygon class="st1" points="500.35,97.53 500.35,152.53 472.85,125.03 		"/>
		<polygon class="st3" points="437.76,125.17 437.76,62.87 500.06,62.87 		"/>
		<g>
			<path class="st5" d="M125.51,187.84c0,34.59-28.05,62.64-62.64,62.64V125.2C97.46,125.2,125.51,153.24,125.51,187.84z"/>
			<rect x="-0.21" y="125.2" class="st4" width="63.08" height="125.28"/>
			<circle class="st3" cx="62.71" cy="187.7" r="35"/>
		</g>
	</g>
	<rect x="-0.21" y="0.38" class="st6" width="750.21" height="499.62"/>
</g>
</svg>
